<?xml version="1.0" standalone="no"?>
<!DOCTYPE svg PUBLIC "-//W3C//DTD SVG 20010904//EN"
 "http://www.w3.org/TR/2001/REC-SVG-20010904/DTD/svg10.dtd">
<svg version="1.0" xmlns="http://www.w3.org/2000/svg"
 width="360.000000pt" height="360.000000pt" viewBox="0 0 360.000000 360.000000"
 preserveAspectRatio="xMidYMid meet">

<g transform="translate(0.000000,360.000000) scale(0.100000,-0.100000)"
fill="#000000" stroke="none">
<path d="M1500 2552 c-83 -36 -253 -153 -240 -165 16 -14 112 -56 141 -62 34
-6 34 -6 64 57 37 77 101 174 123 188 38 22 -24 9 -88 -18z"/>
<path d="M2052 2523 c23 -32 59 -92 78 -131 35 -73 35 -73 69 -67 40 8 141 54
141 65 0 28 -227 167 -303 186 l-29 7 44 -60z"/>
<path d="M1698 2515 c-63 -43 -164 -203 -142 -225 5 -5 49 -13 97 -16 l87 -7
0 137 c0 75 -1 136 -3 136 -1 0 -19 -11 -39 -25z"/>
<path d="M1860 2406 l0 -136 34 0 c80 0 156 13 156 27 0 45 -105 195 -159 226
l-31 18 0 -135z"/>
<path d="M1147 2253 c-61 -89 -127 -276 -127 -360 l0 -33 164 0 164 0 7 68 c3
37 13 108 22 157 8 50 16 96 16 103 1 8 -24 23 -59 37 -33 12 -79 32 -102 44
-23 11 -45 21 -50 21 -5 0 -21 -17 -35 -37z"/>
<path d="M2335 2255 c-38 -19 -85 -37 -103 -41 -28 -5 -33 -10 -28 -28 10 -36
34 -188 41 -258 l7 -68 164 0 164 0 0 33 c0 110 -120 400 -164 396 -6 0 -42
-16 -81 -34z"/>
<path d="M2079 2176 c-2 -3 -53 -10 -112 -17 l-107 -12 0 -143 0 -144 141 0
141 0 -6 28 c-2 15 -8 62 -11 104 -6 69 -27 174 -38 184 -2 2 -6 2 -8 0z"/>
<path d="M1505 2158 c-13 -40 -24 -101 -30 -163 -3 -38 -8 -85 -11 -102 l-5
-33 141 0 140 0 0 144 0 143 -100 12 c-125 14 -130 14 -135 -1z"/>
<path d="M1020 1707 c0 -86 80 -304 138 -376 l20 -25 69 32 c38 17 86 38 108
45 22 8 39 21 38 28 0 8 -8 55 -16 104 -9 50 -19 120 -22 158 l-7 67 -164 0
-164 0 0 -33z"/>
<path d="M1466 1688 c17 -168 38 -273 52 -264 5 3 56 10 115 17 l107 12 0 143
0 144 -140 0 -139 0 5 -52z"/>
<path d="M1860 1596 l0 -143 111 -13 c61 -6 114 -8 119 -3 12 13 28 91 35 168
3 39 8 85 11 103 l5 32 -141 0 -140 0 0 -144z"/>
<path d="M2245 1673 c-3 -38 -13 -108 -22 -158 -8 -49 -16 -96 -16 -104 -1 -7
16 -20 38 -28 22 -7 70 -28 108 -45 l69 -32 20 25 c58 72 138 290 138 376 l0
33 -164 0 -164 0 -7 -67z"/>
<path d="M1597 1323 c-21 -2 -40 -10 -43 -18 -13 -33 96 -195 155 -228 l31
-18 0 135 0 136 -52 -2 c-29 -1 -70 -3 -91 -5z"/>
<path d="M1860 1196 l0 -137 31 18 c62 36 177 209 153 233 -5 5 -49 13 -97 16
l-87 7 0 -137z"/>
<path d="M1380 1271 c-43 -14 -120 -53 -120 -61 0 -5 30 -31 68 -60 99 -75
262 -150 262 -121 0 6 -4 11 -9 11 -13 0 -93 124 -121 188 -24 53 -32 57 -80
43z"/>
<path d="M2141 1228 c-30 -66 -107 -185 -129 -198 -38 -22 24 -9 89 19 83 35
238 141 239 162 0 10 -104 57 -142 64 -33 6 -34 5 -57 -47z"/>
</g>
</svg>
